<svg xmlns="http://www.w3.org/2000/svg" viewBox="0 0 900 900" role="img" aria-labelledby="title desc">
  <title id="title">Cinder lights a public beacon</title><desc id="desc">Cinder turns a hand crank that sends warm signals outward to a community.</desc>
  <defs><filter id="rough"><feTurbulence baseFrequency=".65" numOctaves="2" seed="32" result="n"/><feDisplacementMap in="SourceGraphic" in2="n" scale="1.2"/></filter><filter id="glow" x="-100%" y="-100%" width="300%" height="300%"><feGaussianBlur stdDeviation="24" result="b"/><feMerge><feMergeNode in="b"/><feMergeNode in="SourceGraphic"/></feMerge></filter></defs>
  <style>.beam{fill:none;stroke:#ffe378;stroke-width:8;stroke-linecap:round;opacity:.45;animation:beam 3s ease-in-out infinite;transform-origin:540px 245px}.b2{animation-delay:-1s}.b3{animation-delay:-2s}.crank{animation:crank 4s linear infinite;transform-origin:449px 574px}@keyframes beam{50%{opacity:1;transform:scale(1.04)}}@keyframes crank{to{transform:rotate(360deg)}}@media(prefers-reduced-motion:reduce){*{animation:none!important}}</style>
  <g filter="url(#rough)"><path class="beam" d="M540 245C427 123 283 79 130 117"/><path class="beam b2" d="M540 245C639 105 748 72 848 93"/><path class="beam b3" d="M540 245c160 12 250 74 306 169"/><circle cx="540" cy="245" r="80" fill="#ffe378" stroke="#102f29" stroke-width="14" filter="url(#glow)"/><path d="M516 148c25 35 3 52 32 70 1-25 23-30 29-53 19 31 15 67-14 88h-89c-19-25-15-58 12-78-4 22 7 31 17 36-2-24 4-43 13-63Z" fill="#ff6b35" stroke="#102f29" stroke-width="11"/>
  <path d="M436 278h208l51 322H384z" fill="#153d35" stroke="#102f29" stroke-width="15"/><path d="M410 426h260M396 518h288" stroke="#8ad6dc" stroke-width="9"/><circle cx="540" cy="472" r="49" fill="#ff6b35" stroke="#102f29" stroke-width="11"/><g class="crank"><path d="M540 472v-76" stroke="#f6f1df" stroke-width="12" stroke-linecap="round"/><circle cx="540" cy="388" r="17" fill="#f6f1df"/></g>
  <!-- Cinder operating the beacon -->
  <path d="M285 377c25 35 3 52 32 70 1-25 23-30 29-53 19 31 15 67-14 88h-89c-19-25-15-58 12-78-4 22 7 31 17 36-2-24 4-43 13-63Z" fill="#ff6b35" stroke="#102f29" stroke-width="11"/><path d="M229 458c-45 26-62 82-46 135 14 48 55 73 109 68 60-5 94-44 88-101-6-54-42-101-91-111-21-5-41-2-60 9Z" fill="#f6f1df" stroke="#102f29" stroke-width="12"/><circle cx="255" cy="520" r="8" fill="#102f29"/><circle cx="304" cy="520" r="8" fill="#102f29"/><path d="M272 537q12-10 24 0-11 12-24 0Z" fill="#102f29"/><path d="M353 536c38 7 67 19 104 44" fill="none" stroke="#102f29" stroke-width="11" stroke-linecap="round"/><path d="M211 532c-26 7-35 27-27 56" fill="none" stroke="#102f29" stroke-width="11" stroke-linecap="round"/><path d="M248 653l-4 29M328 649l7 29" stroke="#102f29" stroke-width="10" stroke-linecap="round"/>
  <path d="M126 706c170 64 391 71 655-9" fill="none" stroke="#102f29" stroke-width="16" stroke-linecap="round"/><path d="M169 752c153 50 344 55 568-8" fill="none" stroke="#8ad6dc" stroke-width="8" stroke-linecap="round" opacity=".7"/>
  <g fill="#ffe378"><circle cx="138" cy="117" r="10"/><circle cx="848" cy="93" r="10"/><circle cx="846" cy="414" r="10"/></g></g>
</svg>
